<svg width="48" height="48" viewBox="0 0 48 48" fill="none" xmlns="http://www.w3.org/2000/svg">
<g clip-path="url(#clip0_1_104)">
<path d="M18.1152 27.4255H15.5313C14.5995 27.4255 13.8414 28.218 13.8414 29.1922V34.9152C13.8414 35.5134 14.307 36.0002 14.8792 36.0002H18.7672C19.3395 36.0002 19.8051 35.5134 19.8051 34.9152V29.1922C19.8051 28.218 19.047 27.4255 18.1152 27.4255Z" fill="#232536"/>
<path d="M25.6996 23.9491H23.1157C22.1839 23.9491 21.4258 24.7417 21.4258 25.7158V34.9147C21.4258 35.5129 21.8914 35.9997 22.4636 35.9997H26.3516C26.9239 35.9997 27.3894 35.5129 27.3894 34.9147V25.7158C27.3894 24.7416 26.6314 23.9491 25.6996 23.9491Z" fill="#232536"/>
<path d="M33.4252 19.9888H30.8414C29.9095 19.9888 29.1515 20.7814 29.1515 21.7555V34.9149C29.1515 35.5131 29.617 35.9998 30.1893 35.9998H34.0773C34.6495 35.9998 35.1151 35.5131 35.1151 34.9149V21.7555C35.1151 20.7814 34.357 19.9888 33.4252 19.9888Z" fill="#232536"/>
<path d="M31.368 12.6682C31.0518 12.2012 30.5379 11.9542 29.9928 12.0065L25.1126 12.4785C24.5677 12.5313 24.1057 12.873 23.877 13.3927C23.6482 13.9124 23.7003 14.5016 24.0164 14.9686L24.2888 15.3711L18.2316 19.7468L18.2254 19.7514C17.7956 20.0693 17.51 20.5433 17.4212 21.0859C17.3324 21.6284 17.4509 22.1747 17.7551 22.624C18.0592 23.0733 18.5125 23.372 19.0315 23.4649C19.144 23.485 19.2566 23.495 19.3684 23.495C19.7712 23.495 20.1636 23.3658 20.4994 23.1184L26.5663 18.7358L26.8475 19.1511C27.1356 19.5767 27.5879 19.8199 28.0782 19.8199C28.126 19.8199 28.1742 19.8175 28.2226 19.8129C28.7676 19.7601 29.2296 19.4184 29.4583 18.8986L31.5074 14.2442C31.7362 13.7244 31.6841 13.1352 31.368 12.6682Z" fill="#FFD050"/>
</g>
<defs>
<clipPath id="clip0_1_104">
<rect width="22.9565" height="24" fill="white" transform="translate(13 12)"/>
</clipPath>
</defs>
</svg>
